<svg width="1138" height="127" viewBox="0 0 1138 127" fill="none" xmlns="http://www.w3.org/2000/svg">
<g opacity="0.7">
<path d="M79.1019 114.705C77.721 114.782 76.3552 114.379 75.2248 113.563C74.7524 113.204 74.3724 112.732 74.1176 112.189C73.8627 111.646 73.7408 111.047 73.7621 110.445V88.3804C73.7509 88.287 73.7605 88.1922 73.7903 88.1032C73.8202 88.0142 73.8694 87.9333 73.9344 87.8667C73.9993 87.8002 74.0782 87.7497 74.165 87.7191C74.2518 87.6885 74.3443 87.6786 74.4354 87.6902H78.3358C78.7769 87.6902 78.9859 87.9282 78.9859 88.3804V108.731C78.9859 109.635 79.3805 110.088 80.1931 110.088C80.5376 110.102 80.8822 110.062 81.2146 109.969C81.679 109.969 81.9344 110.111 81.9576 110.54L82.3058 113.515C82.3225 113.602 82.321 113.691 82.3011 113.777C82.2813 113.863 82.2437 113.944 82.191 114.014C82.1382 114.084 82.0713 114.141 81.995 114.182C81.9187 114.224 81.8347 114.248 81.7486 114.253C80.8943 114.542 80.0016 114.695 79.1019 114.705Z" fill="#394149"/>
<path d="M97.1036 112.329C95.3598 113.871 93.1686 114.714 90.9067 114.714C88.6448 114.714 86.4535 113.871 84.7098 112.329C83.1772 110.674 82.3174 108.438 82.3174 106.108C82.3174 103.777 83.1772 101.541 84.7098 99.8858C86.4569 98.3522 88.6469 97.514 90.9067 97.514C93.1665 97.514 95.3565 98.3522 97.1036 99.8858C98.6009 101.557 99.4368 103.782 99.4368 106.097C99.4368 108.411 98.6009 110.636 97.1036 112.307V112.329ZM87.9735 109.412C88.7827 110.196 89.8355 110.631 90.9273 110.631C92.0192 110.631 93.072 110.196 93.8812 109.412C94.6136 108.511 95.0169 107.357 95.0169 106.163C95.0169 104.969 94.6136 103.815 93.8812 102.914C93.072 102.13 92.0192 101.695 90.9273 101.695C89.8355 101.695 88.7827 102.13 87.9735 102.914C87.2411 103.815 86.8378 104.969 86.8378 106.163C86.8378 107.357 87.2411 108.511 87.9735 109.412Z" fill="#394149"/>
<path d="M120.255 98.0718C120.646 98.0718 120.832 98.3117 120.832 98.7675V115.969C120.868 117.129 120.681 118.285 120.286 119.352C119.891 120.418 119.297 121.369 118.547 122.134C116.882 123.788 114.742 124.645 112.556 124.533C110.582 124.614 108.635 123.986 106.977 122.734C106.27 122.192 105.665 121.487 105.201 120.661C104.737 119.836 104.424 118.908 104.281 117.936C104.281 117.456 104.281 117.24 104.836 117.24H108.295C108.442 117.246 108.584 117.301 108.705 117.399C108.825 117.497 108.919 117.633 108.974 117.792C109.199 118.52 109.646 119.127 110.23 119.495C110.942 119.923 111.734 120.138 112.536 120.119C113.019 120.15 113.503 120.068 113.959 119.879C114.415 119.689 114.834 119.396 115.191 119.015C115.518 118.617 115.772 118.147 115.938 117.631C116.104 117.116 116.179 116.567 116.159 116.017V114.505C114.92 115.567 113.413 116.115 111.877 116.064C110.801 116.11 109.729 115.902 108.725 115.453C107.72 115.003 106.804 114.322 106.03 113.45C104.546 111.66 103.717 109.269 103.717 106.78C103.717 104.292 104.546 101.9 106.03 100.111C106.807 99.2463 107.725 98.5716 108.729 98.1266C109.733 97.6816 110.803 97.4754 111.877 97.52C113.458 97.4714 115.005 98.0556 116.262 99.1753V98.7915C116.252 98.6995 116.26 98.6063 116.286 98.5185C116.311 98.4308 116.353 98.3507 116.408 98.2841C116.463 98.2174 116.53 98.166 116.605 98.1334C116.679 98.1009 116.759 98.088 116.838 98.0958L120.255 98.0718ZM112.268 111.794C112.798 111.813 113.326 111.696 113.813 111.452C114.3 111.207 114.736 110.841 115.088 110.379C115.773 109.349 116.144 108.083 116.144 106.78C116.144 105.478 115.773 104.212 115.088 103.182C114.737 102.726 114.304 102.365 113.821 102.125C113.337 101.884 112.814 101.77 112.289 101.79C111.752 101.771 111.218 101.887 110.724 102.131C110.23 102.376 109.788 102.742 109.427 103.206C108.669 104.191 108.27 105.482 108.315 106.804C108.278 108.114 108.668 109.391 109.407 110.379C109.768 110.841 110.211 111.207 110.705 111.451C111.198 111.695 111.732 111.812 112.268 111.794Z" fill="#394149"/>
<path d="M137.754 112.34C136.001 113.875 133.804 114.714 131.537 114.714C129.269 114.714 127.072 113.875 125.319 112.34C123.815 110.663 122.976 108.432 122.976 106.111C122.976 103.79 123.815 101.558 125.319 99.882C127.074 98.3506 129.27 97.514 131.537 97.514C133.803 97.514 136 98.3506 137.754 99.882C139.257 101.555 140.095 103.782 140.095 106.1C140.095 108.417 139.257 110.645 137.754 112.318V112.34ZM128.573 109.419C128.97 109.822 129.439 110.138 129.951 110.347C130.463 110.556 131.009 110.654 131.557 110.636C132.102 110.651 132.644 110.551 133.153 110.342C133.661 110.134 134.126 109.82 134.521 109.419C135.244 108.511 135.641 107.358 135.641 106.166C135.641 104.974 135.244 103.822 134.521 102.913C134.126 102.513 133.661 102.199 133.153 101.99C132.644 101.781 132.102 101.681 131.557 101.696C131.009 101.678 130.463 101.777 129.951 101.986C129.439 102.195 128.97 102.51 128.573 102.913C127.85 103.822 127.453 104.974 127.453 106.166C127.453 107.358 127.85 108.511 128.573 109.419Z" fill="#394149"/>
<path d="M147.268 92.7164C146.686 93.2682 145.941 93.5724 145.168 93.5724C144.396 93.5724 143.65 93.2682 143.069 92.7164C142.806 92.4466 142.596 92.1213 142.453 91.7604C142.309 91.3995 142.235 91.0106 142.235 90.6175C142.235 90.2245 142.309 89.8356 142.453 89.4747C142.596 89.1138 142.806 88.7885 143.069 88.5187C143.656 87.9807 144.4 87.6855 145.168 87.6855C145.937 87.6855 146.68 87.9807 147.268 88.5187C147.531 88.7885 147.741 89.1138 147.884 89.4747C148.028 89.8356 148.102 90.2245 148.102 90.6175C148.102 91.0106 148.028 91.3995 147.884 91.7604C147.741 92.1213 147.531 92.4466 147.268 92.7164ZM147.729 114.707C146.423 114.776 145.132 114.373 144.059 113.562C143.618 113.197 143.265 112.723 143.028 112.179C142.791 111.636 142.677 111.038 142.696 110.437V97.4626C142.685 97.369 142.694 97.274 142.723 97.1848C142.751 97.0956 142.797 97.0146 142.859 96.9479C142.92 96.8812 142.995 96.8306 143.077 96.7999C143.159 96.7693 143.247 96.7594 143.333 96.771H147.026C147.443 96.771 147.641 97.0095 147.641 97.4626V108.72C147.641 109.626 148.015 110.08 148.762 110.08C149.095 110.093 149.429 110.052 149.751 109.96C150.191 109.96 150.433 110.103 150.454 110.533L150.784 113.514C150.8 113.601 150.799 113.691 150.78 113.777C150.761 113.863 150.725 113.944 150.675 114.014C150.625 114.084 150.562 114.142 150.49 114.183C150.418 114.224 150.338 114.248 150.257 114.253C149.441 114.545 148.588 114.698 147.729 114.707Z" fill="#394149"/>
<path d="M164.208 97.5301C165.267 97.4838 166.322 97.6733 167.313 98.0873C168.304 98.5013 169.209 99.1314 169.976 99.9401C171.401 101.634 172.194 103.862 172.194 106.177C172.194 108.492 171.401 110.721 169.976 112.414C169.213 113.23 168.309 113.866 167.317 114.284C166.326 114.702 165.268 114.894 164.208 114.847C162.698 114.884 161.219 114.374 159.994 113.396V121.452C159.994 121.876 159.792 122.077 159.409 122.077H156.022C155.944 122.093 155.865 122.087 155.79 122.062C155.715 122.036 155.646 121.99 155.591 121.929C155.535 121.867 155.494 121.792 155.471 121.709C155.447 121.625 155.443 121.537 155.457 121.452V103.153C155.481 102.975 155.466 102.792 155.415 102.62C155.364 102.448 155.277 102.292 155.161 102.164C155.046 102.037 154.905 101.94 154.749 101.883C154.594 101.827 154.429 101.811 154.267 101.837H153.602C153.158 101.837 152.937 101.658 152.937 101.301V98.6682C152.926 98.5052 152.966 98.3433 153.051 98.2093C153.135 98.0753 153.259 97.9773 153.4 97.9318C154.098 97.6512 154.836 97.515 155.578 97.5301C156.318 97.4576 157.061 97.6313 157.711 98.0289C158.361 98.4264 158.889 99.0298 159.228 99.7616C159.877 99.0345 160.654 98.4616 161.51 98.0779C162.367 97.6943 163.285 97.5079 164.208 97.5301ZM161.063 109.513C161.422 109.929 161.854 110.26 162.333 110.486C162.811 110.712 163.325 110.829 163.846 110.829C164.366 110.829 164.88 110.712 165.359 110.486C165.837 110.26 166.269 109.929 166.628 109.513C167.386 108.578 167.784 107.354 167.737 106.099C167.79 104.843 167.391 103.616 166.628 102.685C166.269 102.269 165.837 101.938 165.359 101.712C164.88 101.486 164.366 101.369 163.846 101.369C163.325 101.369 162.811 101.486 162.333 101.712C161.854 101.938 161.422 102.269 161.063 102.685C160.329 103.632 159.947 104.852 159.994 106.099C159.953 107.345 160.334 108.562 161.063 109.513Z" fill="#394149"/>
<path d="M182.124 114.705C180.249 114.787 178.39 114.314 176.757 113.34C176.101 112.923 175.543 112.357 175.124 111.682C174.705 111.007 174.435 110.241 174.334 109.441C174.334 109.001 174.48 108.78 174.94 108.78H178.01C178.156 108.786 178.298 108.835 178.419 108.92C178.541 109.006 178.638 109.125 178.699 109.265C179.138 110.454 180.286 111.049 182.124 111.049C182.765 111.08 183.404 110.944 183.983 110.653C184.183 110.557 184.354 110.407 184.48 110.217C184.605 110.026 184.678 109.804 184.693 109.573C184.693 109.001 184.359 108.604 183.691 108.34C182.898 108.062 182.078 107.877 181.247 107.789C180.262 107.672 179.286 107.488 178.323 107.239C177.387 107.015 176.536 106.501 175.88 105.763C175.493 105.261 175.209 104.681 175.044 104.058C174.879 103.435 174.837 102.784 174.922 102.143C175.006 101.503 175.214 100.887 175.533 100.336C175.853 99.7837 176.276 99.3069 176.778 98.9351C178.283 97.9238 180.049 97.4311 181.832 97.5254C183.558 97.4639 185.265 97.9141 186.761 98.8249C187.363 99.1849 187.882 99.6821 188.28 100.28C188.677 100.878 188.943 101.563 189.058 102.283C189.058 102.723 188.87 102.944 188.494 102.944H185.403C185.273 102.952 185.143 102.918 185.032 102.848C184.92 102.777 184.831 102.672 184.777 102.547C184.57 102.026 184.181 101.608 183.691 101.38C183.137 101.074 182.519 100.923 181.894 100.939C181.282 100.904 180.672 101.033 180.119 101.314C179.925 101.393 179.757 101.532 179.638 101.712C179.519 101.893 179.454 102.107 179.451 102.327C179.464 102.628 179.569 102.917 179.749 103.151C179.93 103.385 180.176 103.551 180.453 103.626C181.255 103.945 182.089 104.167 182.939 104.287C183.915 104.423 184.884 104.614 185.842 104.86C186.778 105.083 187.629 105.597 188.285 106.336C188.636 106.742 188.908 107.218 189.083 107.736C189.259 108.254 189.335 108.804 189.308 109.353C189.326 110.114 189.157 110.868 188.817 111.539C188.476 112.211 187.976 112.778 187.366 113.185C185.806 114.242 183.977 114.772 182.124 114.705Z" fill="#394149"/>
<path d="M210.706 113.545C210.718 113.626 210.715 113.709 210.697 113.789C210.679 113.869 210.646 113.944 210.601 114.01C210.556 114.076 210.499 114.131 210.434 114.173C210.369 114.215 210.297 114.242 210.222 114.253C209.453 114.526 208.651 114.672 207.842 114.687C207.042 114.777 206.234 114.641 205.497 114.293C204.759 113.945 204.116 113.397 203.632 112.7C202.144 114.087 200.221 114.799 198.263 114.687C197.353 114.733 196.445 114.571 195.596 114.213C194.748 113.855 193.978 113.309 193.336 112.609C192.698 111.876 192.203 111.01 191.881 110.065C191.559 109.119 191.417 108.112 191.462 107.105V98.1763C191.462 97.7424 191.651 97.514 192.051 97.514H195.589C195.989 97.514 196.178 97.7424 196.178 98.1763V106.42C196.14 107.447 196.463 108.452 197.083 109.229C197.393 109.585 197.769 109.865 198.187 110.051C198.605 110.236 199.054 110.322 199.505 110.303C199.966 110.324 200.427 110.247 200.861 110.074C201.294 109.902 201.692 109.638 202.031 109.298C202.352 108.939 202.602 108.513 202.765 108.046C202.928 107.578 203.001 107.079 202.979 106.58V98.1763C202.979 97.7424 203.168 97.514 203.568 97.514H207.148C207.548 97.514 207.737 97.7424 207.737 98.1763V108.932C207.737 109.823 208.095 110.257 208.79 110.257C209.116 110.271 209.443 110.232 209.758 110.143C209.838 110.119 209.922 110.114 210.003 110.13C210.084 110.146 210.161 110.181 210.228 110.234C210.295 110.287 210.35 110.355 210.389 110.435C210.428 110.514 210.45 110.601 210.453 110.691L210.706 113.545Z" fill="#394149"/>
<path d="M244.936 113.6C244.955 113.679 244.957 113.761 244.942 113.842C244.926 113.922 244.895 113.997 244.848 114.063C244.802 114.128 244.743 114.182 244.674 114.221C244.606 114.26 244.53 114.282 244.453 114.286C243.671 114.553 242.855 114.695 242.033 114.706C240.782 114.774 239.546 114.4 238.52 113.644C238.076 113.32 237.716 112.886 237.47 112.38C237.224 111.874 237.101 111.312 237.111 110.744V105.542C237.155 104.55 236.839 103.576 236.227 102.82C235.932 102.474 235.567 102.201 235.16 102.021C234.752 101.841 234.312 101.758 233.871 101.779C233.473 101.763 233.077 101.843 232.712 102.012C232.348 102.18 232.025 102.434 231.767 102.753C231.212 103.495 230.928 104.422 230.968 105.365V113.533C230.968 113.954 230.778 114.175 230.379 114.175H226.823C226.741 114.186 226.657 114.177 226.578 114.148C226.5 114.12 226.428 114.073 226.369 114.011C226.31 113.949 226.266 113.874 226.239 113.791C226.212 113.708 226.203 113.62 226.213 113.533V105.542C226.259 104.56 225.968 103.594 225.393 102.82C225.136 102.494 224.815 102.232 224.451 102.052C224.088 101.873 223.691 101.779 223.289 101.779C222.86 101.761 222.432 101.838 222.033 102.006C221.634 102.174 221.274 102.429 220.975 102.753C220.373 103.471 220.064 104.409 220.112 105.365V113.533C220.123 113.62 220.114 113.708 220.087 113.791C220.06 113.874 220.015 113.949 219.956 114.011C219.898 114.073 219.826 114.12 219.747 114.148C219.669 114.177 219.585 114.186 219.502 114.175H216.073C215.674 114.175 215.484 113.954 215.484 113.533V103.107C215.509 102.93 215.494 102.749 215.44 102.578C215.387 102.408 215.296 102.253 215.176 102.126C215.055 101.999 214.908 101.904 214.746 101.847C214.584 101.791 214.412 101.775 214.243 101.801H213.549C213.086 101.801 212.855 101.624 212.855 101.27V98.6581C212.844 98.4965 212.886 98.3358 212.974 98.2028C213.062 98.0699 213.191 97.9728 213.339 97.9276C214.066 97.6493 214.836 97.5142 215.611 97.5292C216.354 97.4626 217.1 97.6184 217.762 97.9787C218.425 98.3391 218.977 98.8892 219.355 99.5656C220.065 98.8578 220.906 98.3117 221.825 97.9613C222.744 97.6109 223.723 97.4638 224.699 97.5292C225.646 97.4805 226.592 97.6676 227.458 98.0752C228.324 98.4829 229.087 99.0997 229.684 99.8755C230.381 99.0793 231.236 98.4558 232.189 98.0501C233.143 97.6443 234.17 97.4664 235.196 97.5292C236.114 97.484 237.032 97.6396 237.89 97.9863C238.748 98.333 239.528 98.8633 240.182 99.5435C240.821 100.253 241.317 101.092 241.639 102.009C241.96 102.926 242.102 103.902 242.054 104.878V109.15C242.054 109.991 242.412 110.412 243.085 110.412C243.411 110.428 243.738 110.391 244.053 110.301C244.488 110.301 244.719 110.478 244.747 110.833L244.936 113.6Z" fill="#394149"/>
<path d="M1.83285 95.338C3.3315 88.2413 6.80234 81.9394 11.6927 77.4357C16.5831 72.9319 22.6119 70.4852 28.8191 70.4852C35.0263 70.4852 41.055 72.9319 45.9454 77.4357C50.8358 81.9394 54.3067 88.2413 55.8053 95.338H53.3677C49.2557 95.2666 45.2279 96.7145 41.8501 99.4782C41.6551 99.6445 41.4516 99.7964 41.2407 99.9329H40.9563C40.7454 99.7964 40.5418 99.6445 40.3469 99.4782C36.9391 96.7785 32.9257 95.3365 28.8191 95.3365C24.7125 95.3365 20.6991 96.7785 17.2913 99.4782C17.0963 99.6445 16.8928 99.7964 16.6819 99.9329H16.3975C16.1866 99.7964 15.983 99.6445 15.7881 99.4782C12.4103 96.7145 8.3825 95.2666 4.27044 95.338H1.83285ZM48.98 110.343C50.2314 109.195 51.7822 108.595 53.3677 108.644H56.6382V100.962H53.3677C50.5751 100.922 47.8463 101.946 45.5877 103.882C44.3167 104.986 42.7791 105.581 41.2 105.581C39.621 105.581 38.0834 104.986 36.8124 103.882C34.4965 101.982 31.7424 100.964 28.9206 100.964C26.0989 100.964 23.3448 101.982 21.0289 103.882C19.7579 104.986 18.2203 105.581 16.6413 105.581C15.0622 105.581 13.5246 104.986 12.2536 103.882C9.96711 101.922 7.19921 100.896 4.37201 100.962H1V108.644H4.27044C5.85592 108.595 7.4068 109.195 8.65812 110.343C10.9698 112.244 13.7208 113.263 16.5397 113.263C19.3586 113.263 22.1096 112.244 24.4213 110.343C25.6742 109.199 27.2239 108.599 28.8089 108.644C30.3949 108.591 31.9469 109.192 33.1966 110.343C35.5125 112.243 38.2666 113.261 41.0883 113.261C43.9101 113.261 46.6642 112.243 48.98 110.343ZM48.98 124.08C50.2314 122.932 51.7822 122.332 53.3677 122.381H56.6382V114.699H53.3677C50.5751 114.659 47.8463 115.683 45.5877 117.619C44.3167 118.723 42.7791 119.318 41.2 119.318C39.621 119.318 38.0834 118.723 36.8124 117.619C34.4965 115.719 31.7424 114.701 28.9206 114.701C26.0989 114.701 23.3448 115.719 21.0289 117.619C19.7579 118.723 18.2203 119.318 16.6413 119.318C15.0622 119.318 13.5246 118.723 12.2536 117.619C9.96711 115.659 7.19921 114.633 4.37201 114.699H1V122.381H4.27044C5.85592 122.332 7.4068 122.932 8.65812 124.08C10.9698 125.981 13.7208 127 16.5397 127C19.3586 127 22.1096 125.981 24.4213 124.08C25.6742 122.936 27.2239 122.336 28.8089 122.381C30.3949 122.328 31.9469 122.929 33.1966 124.08C35.5125 125.98 38.2666 126.998 41.0883 126.998C43.9101 126.998 46.6642 125.98 48.98 124.08Z" fill="#394149"/>
<path d="M387.451 95.6496C386.887 96.3011 386.455 97.0874 386.185 97.9524C385.916 98.8174 385.817 99.7399 385.894 100.654L385.867 100.623C385.946 101.7 385.819 102.783 385.496 103.797C385.173 104.811 384.661 105.732 383.995 106.496C383.33 107.26 382.527 107.848 381.643 108.219C380.759 108.589 379.816 108.735 378.878 108.644L378.905 108.674C377.783 108.555 376.656 108.835 375.678 109.477C374.7 110.119 373.918 111.091 373.44 112.261C372.961 113.432 372.808 114.743 373.003 116.017C373.197 117.29 373.729 118.464 374.526 119.377C375.323 120.291 376.347 120.901 377.457 121.123C378.566 121.345 379.709 121.169 380.728 120.618C381.748 120.068 382.595 119.17 383.153 118.047C383.712 116.924 383.955 115.631 383.849 114.344L383.878 114.374C383.798 113.298 383.925 112.215 384.248 111.201C384.571 110.187 385.084 109.265 385.749 108.502C386.415 107.738 387.217 107.15 388.101 106.779C388.985 106.408 389.929 106.263 390.867 106.354L390.838 106.323C391.755 106.418 392.677 106.246 393.52 105.822C394.363 105.399 395.099 104.738 395.66 103.901C396.221 103.064 396.589 102.079 396.73 101.035C396.87 99.9919 396.779 98.9246 396.465 97.9324C396.15 96.9402 395.623 96.0551 394.931 95.3592C394.239 94.6633 393.405 94.1791 392.506 93.9514C391.608 93.7238 390.674 93.7601 389.791 94.0569C388.908 94.3538 388.105 94.9016 387.455 95.6496H387.451Z" fill="#394149"/>
<path d="M376.947 105.037L376.92 105.007C377.695 105.097 378.478 104.988 379.212 104.688C379.946 104.387 380.613 103.903 381.164 103.271C381.715 102.638 382.137 101.873 382.399 101.03C382.661 100.188 382.757 99.2886 382.679 98.3982L382.707 98.4282C382.63 97.3807 382.753 96.3265 383.067 95.3392C383.382 94.3519 383.88 93.4553 384.527 92.712C385.174 91.9686 385.955 91.3965 386.815 91.0354C387.675 90.6744 388.593 90.5331 389.505 90.6215L389.477 90.5916C390.568 90.7093 391.665 90.4375 392.616 89.8134C393.568 89.1893 394.329 88.2433 394.795 87.1042C395.262 85.9652 395.411 84.6888 395.222 83.4489C395.034 82.209 394.517 81.0662 393.742 80.1762C392.967 79.2862 391.971 78.6924 390.892 78.4758C389.812 78.2592 388.701 78.4304 387.709 78.966C386.717 79.5015 385.893 80.3754 385.35 81.4684C384.806 82.5614 384.57 83.8203 384.672 85.0734L384.646 85.0418C384.723 86.0894 384.6 87.1437 384.286 88.1311C383.972 89.1185 383.474 90.0153 382.826 90.7587C382.179 91.5021 381.398 92.0742 380.538 92.4352C379.678 92.7961 378.76 92.9372 377.848 92.8484L377.874 92.88C377.099 92.7903 376.316 92.8996 375.582 93.1999C374.848 93.5003 374.181 93.9842 373.63 94.6167C373.079 95.2492 372.657 96.0145 372.395 96.8571C372.133 97.6998 372.037 98.5988 372.115 99.4892L372.088 99.4593C372.165 100.507 372.042 101.561 371.728 102.548C371.413 103.535 370.915 104.432 370.268 105.175C369.62 105.918 368.84 106.49 367.98 106.851C367.121 107.213 366.203 107.354 365.291 107.266L365.317 107.296C364.225 107.178 363.129 107.45 362.177 108.074C361.226 108.698 360.465 109.644 359.998 110.783C359.532 111.922 359.383 113.199 359.572 114.439C359.76 115.678 360.277 116.821 361.052 117.711C361.827 118.601 362.822 119.195 363.902 119.412C364.982 119.628 366.093 119.457 367.085 118.922C368.077 118.386 368.901 117.512 369.444 116.419C369.988 115.326 370.224 114.067 370.122 112.814L370.149 112.844C370.072 111.796 370.195 110.742 370.51 109.755C370.824 108.768 371.322 107.871 371.97 107.128C372.617 106.384 373.398 105.812 374.257 105.451C375.117 105.09 376.035 104.949 376.947 105.037Z" fill="#394149"/>
<path d="M366.754 102.237C367.283 101.586 367.688 100.8 367.94 99.9343C368.192 99.0691 368.285 98.1464 368.212 97.2321L368.239 97.2629C368.165 96.1862 368.283 95.1027 368.587 94.088C368.89 93.0733 369.37 92.1519 369.995 91.388C370.619 90.6242 371.372 90.0364 372.201 89.6656C373.03 89.2949 373.916 89.1501 374.795 89.2415L374.769 89.2108C375.82 89.3314 376.877 89.052 377.794 88.4108C378.711 87.7695 379.444 86.7977 379.893 85.6277C380.343 84.4577 380.486 83.1466 380.304 81.8731C380.123 80.5996 379.624 79.4258 378.877 78.5116C378.131 77.5975 377.172 76.9876 376.131 76.7651C375.091 76.5425 374.02 76.7182 373.064 77.2682C372.108 77.8181 371.314 78.7156 370.79 79.8381C370.266 80.9606 370.038 82.2537 370.136 83.5408L370.111 83.51C370.185 84.5864 370.067 85.6695 369.764 86.684C369.461 87.6984 368.98 88.6197 368.356 89.3835C367.732 90.1473 366.98 90.7352 366.151 91.1061C365.322 91.4771 364.437 91.6222 363.558 91.5314L363.583 91.5621C362.724 91.4678 361.859 91.6405 361.069 92.0642C360.279 92.4878 359.589 93.1488 359.063 93.9857C358.537 94.8227 358.192 95.8086 358.06 96.8521C357.928 97.8956 358.014 98.963 358.309 99.9552C358.604 100.947 359.099 101.833 359.748 102.528C360.396 103.224 361.178 103.708 362.021 103.936C362.863 104.164 363.739 104.127 364.566 103.83C365.394 103.533 366.148 102.985 366.756 102.237H366.754Z" fill="#394149"/>
<path d="M411.715 85.2376H416.191V109.223H411.715V85.2376Z" fill="#394149"/>
<path d="M417.683 100.691C417.677 98.9954 418.11 97.3359 418.926 95.9227C419.742 94.5096 420.905 93.4063 422.268 92.7527C423.63 92.0991 425.131 91.9246 426.58 92.2512C428.029 92.5778 429.361 93.391 430.408 94.5876C431.454 95.7842 432.168 97.3104 432.458 98.973C432.748 100.636 432.602 102.36 432.038 103.927C431.475 105.494 430.519 106.834 429.291 107.777C428.064 108.72 426.62 109.223 425.143 109.223C424.163 109.236 423.19 109.024 422.282 108.6C421.374 108.176 420.548 107.549 419.854 106.755C419.159 105.96 418.609 105.015 418.237 103.974C417.864 102.933 417.676 101.817 417.683 100.691ZM428.381 100.691C428.363 99.9602 428.158 99.2515 427.792 98.6535C427.425 98.0556 426.913 97.595 426.32 97.3293C425.727 97.0635 425.079 97.0045 424.456 97.1595C423.834 97.3146 423.265 97.6768 422.821 98.2009C422.377 98.725 422.078 99.3878 421.96 100.106C421.842 100.825 421.912 101.567 422.159 102.241C422.407 102.915 422.822 103.489 423.353 103.893C423.884 104.297 424.506 104.513 425.143 104.513C425.579 104.526 426.013 104.436 426.417 104.247C426.821 104.058 427.187 103.775 427.491 103.416C427.795 103.057 428.031 102.63 428.185 102.161C428.338 101.692 428.404 101.191 428.381 100.691Z" fill="#394149"/>
<path d="M450.508 92.5613V108.187C450.508 113.716 446.876 116.053 443.188 116.053C441.89 116.168 440.59 115.857 439.431 115.153C438.272 114.45 437.299 113.381 436.618 112.063L440.166 109.628C440.452 110.315 440.909 110.881 441.473 111.252C442.038 111.622 442.685 111.779 443.327 111.701C443.737 111.769 444.155 111.726 444.55 111.576C444.944 111.425 445.305 111.172 445.606 110.834C445.907 110.496 446.14 110.082 446.287 109.623C446.435 109.163 446.494 108.67 446.46 108.18V106.676C445.973 107.383 445.353 107.945 444.65 108.317C443.947 108.688 443.18 108.859 442.411 108.815C440.582 108.747 438.847 107.836 437.573 106.276C436.3 104.716 435.588 102.629 435.588 100.456C435.588 98.284 436.3 96.1969 437.573 94.6368C438.847 93.0766 440.582 92.166 442.411 92.0975C443.18 92.0537 443.947 92.2244 444.65 92.596C445.353 92.9675 445.973 93.5295 446.46 94.2369V92.5579L450.508 92.5613ZM446.461 100.459C446.489 99.6632 446.316 98.8758 445.964 98.1981C445.611 97.5203 445.096 96.9832 444.485 96.6558C443.873 96.3284 443.193 96.2258 442.532 96.3611C441.871 96.4965 441.259 96.8635 440.775 97.4151C440.291 97.9667 439.957 98.6776 439.817 99.4562C439.676 100.235 439.735 101.046 439.986 101.784C440.237 102.523 440.668 103.155 441.224 103.601C441.78 104.046 442.436 104.283 443.107 104.282C443.544 104.318 443.983 104.246 444.394 104.068C444.806 103.891 445.182 103.614 445.498 103.253C445.814 102.893 446.063 102.458 446.229 101.977C446.395 101.496 446.474 100.979 446.461 100.459Z" fill="#394149"/>
<path d="M453.493 100.691C453.487 98.9954 453.919 97.3359 454.735 95.9227C455.552 94.5096 456.715 93.4063 458.077 92.7527C459.44 92.0991 460.941 91.9246 462.39 92.2512C463.839 92.5778 465.171 93.391 466.218 94.5876C467.264 95.7842 467.977 97.3104 468.268 98.973C468.558 100.636 468.412 102.36 467.848 103.927C467.284 105.494 466.328 106.834 465.101 107.777C463.873 108.72 462.43 109.223 460.953 109.223C459.973 109.236 459 109.024 458.092 108.6C457.184 108.176 456.358 107.549 455.663 106.755C454.969 105.96 454.419 105.015 454.046 103.974C453.674 102.933 453.485 101.817 453.493 100.691ZM464.19 100.691C464.173 99.9602 463.968 99.2515 463.601 98.6535C463.235 98.0556 462.723 97.595 462.13 97.3293C461.537 97.0635 460.888 97.0045 460.266 97.1595C459.644 97.3146 459.075 97.6768 458.631 98.2009C458.187 98.725 457.887 99.3878 457.77 100.106C457.652 100.825 457.721 101.567 457.969 102.241C458.217 102.915 458.632 103.489 459.163 103.893C459.693 104.297 460.316 104.513 460.953 104.513C461.389 104.526 461.823 104.436 462.227 104.247C462.631 104.058 462.997 103.775 463.301 103.416C463.605 103.057 463.841 102.63 463.994 102.161C464.147 101.692 464.214 101.191 464.19 100.691Z" fill="#394149"/>
<path d="M469.905 88.2193C469.905 87.6296 470.08 87.0531 470.408 86.5628C470.736 86.0724 471.202 85.6903 471.747 85.4646C472.293 85.2389 472.893 85.1799 473.472 85.2949C474.05 85.41 474.582 85.6939 474.999 86.1109C475.417 86.5279 475.701 87.0592 475.816 87.6376C475.931 88.216 475.872 88.8155 475.646 89.3603C475.42 89.9052 475.038 90.3708 474.547 90.6985C474.057 91.0261 473.48 91.201 472.889 91.201C472.1 91.1931 471.346 90.8765 470.788 90.319C470.23 89.7615 469.913 89.0077 469.905 88.2193ZM470.408 92.6584H475.383V109.223H470.401L470.408 92.6584Z" fill="#394149"/>
<path d="M493.768 100.966C493.821 102.075 493.674 103.186 493.336 104.233C492.997 105.28 492.475 106.243 491.798 107.067C491.12 107.89 490.302 108.559 489.39 109.033C488.477 109.507 487.488 109.778 486.481 109.83C485.633 109.881 484.786 109.723 484 109.369C483.215 109.014 482.511 108.472 481.939 107.781V116.076H477.366V92.5699H481.939V94.1473C482.511 93.4566 483.215 92.9146 484.001 92.5606C484.786 92.2065 485.633 92.0492 486.481 92.1001C487.489 92.1518 488.477 92.4225 489.39 92.8967C490.303 93.3709 491.121 94.0393 491.799 94.8633C492.476 95.6872 492.999 96.6506 493.336 97.6979C493.674 98.7452 493.821 99.8558 493.768 100.966ZM489.194 100.966C489.176 100.18 488.948 99.4173 488.539 98.7734C488.129 98.1295 487.557 97.6329 486.892 97.3458C486.228 97.0587 485.501 96.9938 484.803 97.1592C484.106 97.3247 483.468 97.7131 482.969 98.2759C482.471 98.8387 482.135 99.5509 482.002 100.323C481.869 101.096 481.947 101.894 482.224 102.618C482.501 103.343 482.966 103.961 483.561 104.396C484.156 104.83 484.854 105.062 485.567 105.062C486.057 105.086 486.546 104.996 487.003 104.797C487.459 104.598 487.871 104.295 488.214 103.909C488.556 103.522 488.821 103.06 488.99 102.553C489.158 102.045 489.228 101.505 489.194 100.966Z" fill="#394149"/>
<path d="M507.207 103.883C507.207 107.608 504.033 109.194 500.605 109.194C499.22 109.322 497.829 109.024 496.612 108.337C495.395 107.649 494.408 106.606 493.778 105.34L497.904 102.944C498.071 103.529 498.43 104.037 498.92 104.385C499.41 104.733 500.003 104.899 500.598 104.854C501.74 104.854 502.313 104.498 502.313 103.852C502.313 102.068 494.502 103.009 494.502 97.4061C494.502 93.8742 497.423 92.0943 500.725 92.0943C501.966 92.0542 503.195 92.3546 504.284 92.964C505.373 93.5734 506.281 94.4696 506.915 95.5592L502.852 97.7938C502.673 97.3696 502.377 97.0083 501.999 96.7549C501.62 96.5015 501.178 96.3673 500.725 96.3689C499.899 96.3689 499.391 96.6961 499.391 97.2752C499.397 99.1222 507.207 97.8903 507.207 103.883Z" fill="#394149"/>
<path d="M522.128 92.0908V108.744H517.929V107.178C517.445 107.869 516.83 108.413 516.135 108.767C515.439 109.12 514.683 109.272 513.929 109.21C511.102 109.21 508.699 106.813 508.699 102.313V92.0908H512.897V101.581C512.862 101.978 512.9 102.379 513.008 102.756C513.117 103.134 513.293 103.479 513.524 103.767C513.756 104.055 514.038 104.28 514.35 104.425C514.662 104.571 514.997 104.633 515.331 104.609C516.871 104.609 517.934 103.544 517.934 101.179V92.0958L522.128 92.0908Z" fill="#394149"/>
<path d="M547.493 99.0012V109.223H543.016V99.4334C543.016 97.7684 542.3 96.7038 540.868 96.7038C539.376 96.7038 538.54 97.8693 538.54 99.8337V109.223H534.065V99.4334C534.065 97.7684 533.349 96.7038 531.915 96.7038C530.423 96.7038 529.588 97.8693 529.588 99.8337V109.223H525.112V92.5732H529.588V94.1037C530.052 93.4247 530.661 92.8862 531.36 92.5375C532.058 92.1888 532.824 92.0409 533.587 92.1073C534.353 92.0655 535.116 92.2459 535.801 92.6308C536.486 93.0157 537.069 93.5921 537.495 94.3038C537.991 93.5593 538.648 92.9673 539.405 92.5832C540.162 92.199 540.994 92.0353 541.823 92.1073C545.249 92.109 547.493 94.8386 547.493 99.0012Z" fill="#394149"/>
<path d="M550.477 92.0907C552.125 92.0907 553.461 90.5566 553.461 88.6641C553.461 86.7717 552.125 85.2376 550.477 85.2376C548.829 85.2376 547.493 86.7717 547.493 88.6641C547.493 90.5566 548.829 92.0907 550.477 92.0907Z" fill="#394149"/>
<path d="M715.238 87.6724H719.588V109.215H715.238V87.6724ZM721.314 101.081C721.314 95.7531 723.982 92.5741 728.1 92.5741C732.218 92.5741 734.886 95.7531 734.886 101.081C734.886 106.409 732.276 109.606 728.1 109.606C723.924 109.606 721.314 106.498 721.314 101.081ZM730.522 101.081C730.522 98.1507 729.579 96.428 728.1 96.428C726.621 96.428 725.693 98.204 725.693 101.081C725.693 103.958 726.606 105.699 728.1 105.699C729.594 105.699 730.522 104.065 730.522 101.099V101.081ZM736.525 110.263H740.701C740.899 110.804 741.235 111.251 741.659 111.539C742.082 111.827 742.57 111.94 743.05 111.861C744.703 111.861 745.573 110.76 745.573 109.162V106.178H745.486C745.139 107.093 744.577 107.859 743.871 108.378C743.166 108.897 742.349 109.145 741.527 109.091C738.352 109.091 736.249 106.125 736.249 101.028C736.249 95.9307 738.25 92.7162 741.585 92.7162C742.433 92.6755 743.27 92.9531 743.986 93.5117C744.701 94.0704 745.26 94.8834 745.587 95.8419V92.876H749.937V109.037C749.937 112.927 747.139 115.342 743.006 115.342C739.164 115.342 736.771 113.229 736.525 110.281V110.263ZM745.587 101.063C745.587 98.4704 744.616 96.8365 743.079 96.8365C741.542 96.8365 740.599 98.4526 740.599 101.063C740.599 103.674 741.527 105.148 743.079 105.148C744.63 105.148 745.587 103.709 745.587 101.081V101.063ZM751.576 101.063C751.576 95.7354 754.244 92.5564 758.362 92.5564C762.48 92.5564 765.163 95.7354 765.163 101.063C765.163 106.391 762.553 109.588 758.362 109.588C754.171 109.588 751.576 106.498 751.576 101.081V101.063ZM760.784 101.063C760.784 98.1329 759.841 96.4102 758.362 96.4102C756.883 96.4102 756.027 98.204 756.027 101.099C756.027 103.994 756.941 105.716 758.42 105.716C759.899 105.716 760.784 104.065 760.784 101.099V101.063ZM766.816 89.0044C766.804 88.4665 766.924 87.9365 767.158 87.4817C767.393 87.0269 767.733 86.6677 768.135 86.4497C768.536 86.2317 768.982 86.1646 769.415 86.2571C769.847 86.3495 770.248 86.5973 770.566 86.969C770.883 87.3406 771.104 87.8195 771.199 88.3448C771.294 88.8701 771.26 89.4182 771.101 89.9197C770.941 90.4211 770.664 90.8533 770.304 91.1615C769.944 91.4696 769.517 91.6399 769.078 91.6506C768.786 91.6751 768.494 91.6256 768.219 91.5052C767.945 91.3848 767.693 91.1961 767.481 90.9509C767.268 90.7057 767.1 90.4094 766.985 90.0806C766.871 89.7517 766.813 89.3974 766.816 89.0399V89.0044ZM766.816 92.9116H771.166V109.215H766.816V92.9116ZM786.956 101.063C786.956 106.391 785.028 109.428 781.722 109.428C780.874 109.495 780.03 109.241 779.304 108.701C778.578 108.161 778.005 107.361 777.662 106.409H777.575V114.436H773.225V92.876H777.575V95.7886H777.662C777.989 94.8209 778.551 94 779.272 93.4376C779.993 92.8752 780.839 92.5985 781.693 92.6452C785.028 92.7162 787.014 95.7709 787.014 101.099L786.956 101.063ZM782.606 101.063C782.606 98.4704 781.635 96.8187 780.112 96.8187C778.59 96.8187 777.618 98.4881 777.604 101.063C777.589 103.638 778.59 105.29 780.112 105.29C781.635 105.29 782.606 103.674 782.606 101.099V101.063ZM794.424 92.5386C798.035 92.5386 800.224 94.6343 800.326 97.9909H796.367C796.367 96.8365 795.584 96.1083 794.381 96.1083C793.177 96.1083 792.641 96.6766 792.641 97.5113C792.641 98.346 793.119 98.6124 794.091 98.8611L796.875 99.5537C799.528 100.246 800.659 101.561 800.659 104.029C800.659 107.404 798.151 109.57 794.453 109.57C790.756 109.57 788.334 107.404 788.146 104.082H792.336C792.467 105.29 793.25 106 794.526 106C795.802 106 796.382 105.485 796.382 104.633C796.382 103.781 795.976 103.603 794.932 103.337L792.423 102.679C789.828 102.022 788.465 100.335 788.465 97.8488C788.494 94.652 790.828 92.5741 794.424 92.5741V92.5386ZM815.174 109.179H810.983V106.143H810.896C810.666 107.162 810.158 108.055 809.456 108.672C808.755 109.289 807.902 109.593 807.039 109.535C806.378 109.581 805.717 109.452 805.1 109.159C804.483 108.865 803.925 108.412 803.463 107.831C803.001 107.25 802.647 106.555 802.423 105.792C802.199 105.029 802.112 104.216 802.167 103.408V92.876H806.517V102.182C806.517 104.118 807.329 105.148 808.678 105.148C808.994 105.149 809.307 105.067 809.595 104.907C809.883 104.748 810.14 104.515 810.349 104.224C810.558 103.933 810.713 103.591 810.805 103.221C810.897 102.85 810.923 102.46 810.882 102.076V92.876H815.232L815.174 109.179ZM817.276 92.876H821.482V96.0195H821.569C821.799 95.0134 822.296 94.1294 822.981 93.506C823.666 92.8825 824.5 92.5548 825.353 92.5741C826.221 92.489 827.083 92.8072 827.769 93.4653C828.454 94.1235 828.911 95.0734 829.051 96.1261H829.138C829.401 95.0622 829.945 94.1357 830.686 93.4926C831.426 92.8495 832.32 92.5264 833.227 92.5741C833.818 92.5498 834.407 92.6782 834.956 92.9509C835.504 93.2237 836 93.6347 836.41 94.1573C836.82 94.6798 837.136 95.3023 837.337 95.9842C837.538 96.6661 837.62 97.3921 837.577 98.1152V109.215H833.227V99.5359C833.227 97.76 832.574 96.943 831.356 96.943C831.085 96.9402 830.816 97.0088 830.567 97.1441C830.319 97.2794 830.098 97.4784 829.918 97.7275C829.738 97.9766 829.603 98.2701 829.524 98.5882C829.444 98.9063 829.421 99.2416 829.457 99.5715V109.215H825.324V99.4649C825.324 97.831 824.672 96.943 823.483 96.943C823.208 96.9431 822.936 97.0146 822.686 97.1526C822.435 97.2907 822.212 97.4922 822.029 97.744C821.847 97.9957 821.711 98.2919 821.629 98.6131C821.547 98.9342 821.521 99.273 821.554 99.607V109.215H817.204L817.276 92.876Z" fill="#394149"/>
<path d="M703.192 88.7121C702.464 86.6539 701.501 84.7358 700.332 83.0167C698.604 80.3995 696.447 78.2647 694.004 76.7527C691.561 75.2408 688.886 74.386 686.157 74.2447C683.427 74.1034 680.704 74.6786 678.168 75.9327C675.631 77.1868 673.337 79.0911 671.438 81.5205C669.539 83.9499 668.078 86.8492 667.15 90.0275C666.222 93.2059 665.849 96.5913 666.055 99.9609C666.261 103.33 667.042 106.608 668.346 109.577C669.65 112.547 671.447 115.141 673.62 117.189C675.014 118.53 676.555 119.62 678.196 120.426C680.497 121.593 682.96 122.193 685.446 122.195C690.579 122.181 695.498 119.65 699.125 115.158C702.751 110.665 704.79 104.577 704.794 98.2282C704.798 94.9533 704.252 91.7131 703.192 88.7121ZM685.432 79.1077C687.665 79.1074 689.871 79.7111 691.895 80.8764C691.402 81.1403 690.883 81.3246 690.351 81.4248C688.602 81.738 686.981 82.7426 685.731 84.2887C684.481 85.8348 683.669 87.8394 683.416 90.0033C683.304 91.2169 682.858 92.346 682.152 93.1999C681.446 94.0538 680.524 94.5803 679.54 94.6906C677.791 95.0038 676.17 96.0085 674.92 97.5546C673.67 99.1006 672.858 101.105 672.605 103.269C672.519 104.423 672.121 105.508 671.475 106.347C670.361 103.434 669.86 100.22 670.02 97.0037C670.18 93.7873 670.995 90.6732 672.389 87.9511C673.783 85.229 675.712 82.9875 677.995 81.4351C680.278 79.8827 682.841 79.0699 685.446 79.0723L685.432 79.1077ZM673.606 110.61C673.778 110.415 673.949 110.238 674.121 110.026C675.393 108.5 676.21 106.486 676.437 104.313C676.53 103.091 676.971 101.95 677.681 101.094C678.365 100.213 679.286 99.672 680.27 99.5724C682.019 99.2592 683.64 98.2545 684.89 96.7085C686.14 95.1624 686.952 93.1578 687.205 90.9939C687.267 89.7159 687.71 88.512 688.449 87.6155C689.15 86.7521 690.079 86.2307 691.066 86.1474C692.673 85.8739 694.172 84.9901 695.356 83.6181C696.704 85.0014 697.846 86.6655 698.731 88.5353C698.676 88.6261 698.614 88.7091 698.545 88.7829C697.862 89.6712 696.943 90.224 695.957 90.3394C694.205 90.6472 692.582 91.65 691.331 93.1971C690.081 94.7442 689.27 96.7518 689.021 98.918C688.92 100.136 688.482 101.273 687.781 102.137C687.08 103.001 686.159 103.538 685.174 103.658C683.42 103.969 681.793 104.972 680.536 106.517C679.279 108.063 678.458 110.069 678.196 112.237C678.119 113.101 677.879 113.931 677.495 114.66C676.028 113.583 674.714 112.214 673.606 110.61ZM685.432 117.437C683.981 117.439 682.537 117.189 681.142 116.694C681.619 115.594 681.929 114.395 682.057 113.157C682.157 111.942 682.593 110.807 683.291 109.943C683.99 109.08 684.907 108.54 685.889 108.416C687.641 108.107 689.265 107.104 690.518 105.557C691.771 104.011 692.585 102.004 692.839 99.8377C692.939 98.6228 693.375 97.4878 694.073 96.6242C694.772 95.7606 695.689 95.2214 696.672 95.0974C697.99 94.8853 699.247 94.2781 700.332 93.3286C700.935 96.155 701.006 99.1146 700.541 101.98C700.076 104.846 699.086 107.542 697.647 109.861C696.208 112.18 694.359 114.061 692.242 115.359C690.125 116.657 687.795 117.337 685.432 117.349V117.437Z" fill="#394149"/>
<path d="M996.253 84.9929H1000.73V110.692H996.253V84.9929Z" fill="#394149"/>
<path d="M1002.22 101.269C1002.22 99.4027 1002.66 97.5787 1003.48 96.028C1004.3 94.4773 1005.47 93.2696 1006.84 92.558C1008.2 91.8464 1009.71 91.663 1011.15 92.0309C1012.6 92.3989 1013.93 93.3017 1014.97 94.6249C1016.01 95.9481 1016.72 97.6321 1017 99.4635C1017.29 101.295 1017.13 103.191 1016.56 104.912C1015.99 106.633 1015.03 108.101 1013.8 109.13C1012.56 110.159 1011.12 110.702 1009.64 110.691C1008.66 110.701 1007.69 110.464 1006.78 109.993C1005.88 109.522 1005.05 108.827 1004.36 107.95C1003.67 107.072 1003.13 106.029 1002.76 104.882C1002.39 103.735 1002.21 102.506 1002.22 101.269ZM1012.91 101.269C1012.89 100.464 1012.69 99.6838 1012.32 99.0252C1011.95 98.3665 1011.44 97.8588 1010.85 97.5655C1010.26 97.2723 1009.61 97.2064 1008.99 97.3763C1008.36 97.5461 1007.79 97.9441 1007.35 98.5205C1006.9 99.0968 1006.6 99.826 1006.49 100.617C1006.37 101.407 1006.44 102.225 1006.68 102.966C1006.93 103.708 1007.35 104.341 1007.88 104.786C1008.41 105.231 1009.03 105.468 1009.67 105.469C1010.1 105.479 1010.53 105.377 1010.93 105.168C1011.33 104.958 1011.7 104.647 1012 104.253C1012.3 103.859 1012.53 103.39 1012.69 102.877C1012.84 102.363 1012.9 101.816 1012.88 101.269H1012.91Z" fill="#394149"/>
<path d="M1035.05 93.9593V110.775C1035.05 116.708 1031.09 119.228 1027.08 119.228C1025.67 119.364 1024.26 119.035 1022.99 118.277C1021.73 117.519 1020.68 116.363 1019.94 114.939L1023.8 112.33C1024.11 113.069 1024.6 113.678 1025.22 114.077C1025.83 114.476 1026.54 114.646 1027.24 114.564C1027.68 114.628 1028.13 114.576 1028.56 114.412C1028.99 114.247 1029.38 113.974 1029.7 113.612C1030.03 113.25 1030.28 112.808 1030.45 112.318C1030.61 111.828 1030.68 111.301 1030.65 110.775V109.149C1030.12 109.906 1029.44 110.506 1028.68 110.903C1027.91 111.3 1027.08 111.483 1026.25 111.437C1024.23 111.437 1022.29 110.495 1020.86 108.819C1019.44 107.144 1018.63 104.871 1018.63 102.501C1018.63 100.132 1019.44 97.8589 1020.86 96.1832C1022.29 94.5075 1024.23 93.5661 1026.25 93.5661C1027.08 93.5198 1027.91 93.7024 1028.68 94.0995C1029.44 94.4966 1030.12 95.0971 1030.65 95.8535V94.0665L1035.05 93.9593ZM1030.65 102.448C1030.68 101.593 1030.49 100.747 1030.11 100.018C1029.72 99.2898 1029.16 98.7124 1028.5 98.3602C1027.84 98.008 1027.1 97.8972 1026.38 98.0419C1025.66 98.1867 1024.99 98.5804 1024.47 99.1725C1023.94 99.7646 1023.58 100.528 1023.42 101.364C1023.27 102.201 1023.33 103.072 1023.61 103.866C1023.88 104.661 1024.34 105.341 1024.95 105.821C1025.55 106.3 1026.26 106.557 1026.99 106.558C1027.47 106.598 1027.95 106.521 1028.4 106.331C1028.84 106.141 1029.25 105.843 1029.6 105.455C1029.94 105.068 1030.21 104.6 1030.39 104.082C1030.58 103.564 1030.66 103.007 1030.65 102.448Z" fill="#394149"/>
<path d="M1036.54 101.269C1036.54 99.4042 1037.02 97.5817 1037.92 96.0318C1038.83 94.4818 1040.11 93.2741 1041.61 92.5614C1043.11 91.8488 1044.76 91.6632 1046.35 92.0283C1047.94 92.3933 1049.41 93.2925 1050.55 94.6121C1051.7 95.9317 1052.48 97.6123 1052.8 99.4413C1053.11 101.27 1052.95 103.166 1052.32 104.887C1051.7 106.608 1050.65 108.079 1049.29 109.112C1047.94 110.145 1046.35 110.695 1044.73 110.691C1043.65 110.703 1042.58 110.468 1041.58 109.998C1040.58 109.529 1039.67 108.835 1038.91 107.957C1038.15 107.08 1037.54 106.036 1037.14 104.887C1036.73 103.739 1036.53 102.508 1036.54 101.269ZM1048.29 101.269C1048.28 100.463 1048.05 99.6824 1047.65 99.0234C1047.24 98.3644 1046.68 97.8567 1046.03 97.564C1045.37 97.2713 1044.66 97.2065 1043.97 97.3778C1043.29 97.5491 1042.66 97.9489 1042.17 98.527C1041.69 99.1051 1041.36 99.8359 1041.23 100.628C1041.1 101.42 1041.18 102.237 1041.45 102.979C1041.73 103.72 1042.19 104.351 1042.77 104.794C1043.36 105.237 1044.04 105.472 1044.75 105.468C1045.22 105.479 1045.7 105.377 1046.14 105.168C1046.58 104.958 1046.98 104.647 1047.31 104.253C1047.64 103.859 1047.9 103.39 1048.07 102.877C1048.23 102.363 1048.3 101.816 1048.28 101.269H1048.29Z" fill="#394149"/>
<path d="M1054.44 88.1851C1054.44 87.5538 1054.58 86.9366 1054.82 86.4116C1055.07 85.8867 1055.42 85.4775 1055.83 85.2359C1056.23 84.9943 1056.68 84.9311 1057.12 85.0543C1057.55 85.1774 1057.95 85.4815 1058.26 85.9279C1058.58 86.3743 1058.79 86.9431 1058.88 87.5623C1058.96 88.1816 1058.92 88.8234 1058.75 89.4067C1058.58 89.99 1058.29 90.4886 1057.93 90.8393C1057.56 91.1901 1057.12 91.3773 1056.68 91.3773C1056.09 91.368 1055.53 91.0287 1055.11 90.432C1054.69 89.8354 1054.45 89.0288 1054.44 88.1851ZM1054.81 92.9375H1058.58V110.692H1054.81V92.9375Z" fill="#394149"/>
<path d="M1078.31 101.337C1078.36 102.532 1078.21 103.727 1077.87 104.854C1077.54 105.981 1077.01 107.017 1076.34 107.902C1075.66 108.788 1074.85 109.506 1073.94 110.014C1073.03 110.523 1072.05 110.812 1071.04 110.866C1070.19 110.933 1069.34 110.771 1068.55 110.39C1067.76 110.01 1067.05 109.422 1066.47 108.669V117.545H1061.9V92.3525H1066.47V94.0404C1067.05 93.2903 1067.76 92.7047 1068.55 92.3275C1069.34 91.9503 1070.19 91.7913 1071.04 91.8624C1072.04 91.916 1073.02 92.2036 1073.93 92.7088C1074.83 93.2139 1075.65 93.9267 1076.32 94.8065C1077 95.6863 1077.52 96.7158 1077.86 97.8363C1078.2 98.9567 1078.35 100.146 1078.31 101.337ZM1073.74 101.337C1073.72 100.494 1073.49 99.6759 1073.09 98.9856C1072.68 98.2953 1072.11 97.7633 1071.45 97.4563C1070.79 97.1492 1070.07 97.0809 1069.38 97.2597C1068.69 97.4386 1068.06 97.8567 1067.57 98.4616C1067.07 99.0666 1066.74 99.8315 1066.61 100.66C1066.48 101.489 1066.56 102.346 1066.84 103.122C1067.11 103.898 1067.58 104.559 1068.17 105.023C1068.76 105.487 1069.45 105.732 1070.16 105.729C1070.64 105.754 1071.13 105.656 1071.58 105.442C1072.03 105.228 1072.44 104.903 1072.77 104.488C1073.11 104.074 1073.37 103.579 1073.54 103.035C1073.71 102.492 1073.77 101.913 1073.74 101.337Z" fill="#394149"/>
<path d="M1090.25 104.811C1090.25 108.915 1087.41 110.66 1084.39 110.66C1083.15 110.8 1081.92 110.471 1080.84 109.713C1079.75 108.956 1078.88 107.807 1078.32 106.413L1081.99 103.786C1082.14 104.428 1082.45 104.987 1082.89 105.371C1083.32 105.754 1083.84 105.938 1084.37 105.891C1085.38 105.891 1085.9 105.495 1085.9 104.775C1085.9 102.814 1078.96 103.858 1078.96 97.6847C1078.96 93.7974 1081.55 91.8537 1084.48 91.8537C1085.6 91.7906 1086.71 92.1103 1087.69 92.7789C1088.67 93.4475 1089.5 94.44 1090.07 95.651L1086.39 98.0986C1086.23 97.6343 1085.97 97.2394 1085.63 96.9615C1085.29 96.6836 1084.9 96.5348 1084.5 96.5329C1083.76 96.5329 1083.32 96.8928 1083.32 97.5227C1083.32 99.5743 1090.25 98.2246 1090.25 104.811Z" fill="#394149"/>
<path d="M1106.67 93.5591V110.179H1102.44V108.618C1101.96 109.309 1101.35 109.856 1100.66 110.214C1099.97 110.573 1099.22 110.733 1098.47 110.683C1095.65 110.683 1093.24 108.282 1093.24 103.8V93.5591H1097.47V103.044C1097.43 103.441 1097.47 103.841 1097.58 104.218C1097.69 104.594 1097.87 104.938 1098.1 105.225C1098.33 105.513 1098.61 105.737 1098.92 105.882C1099.23 106.027 1099.57 106.09 1099.9 106.066C1101.42 106.066 1102.5 104.991 1102.5 102.708V93.5591H1106.67Z" fill="#394149"/>
<path d="M1130.54 99.4363V110.692H1126.35V99.9176C1126.35 98.0664 1125.69 96.9186 1124.36 96.9186C1123.03 96.9186 1122.19 98.1959 1122.19 100.362V110.692H1118V99.9176C1118 98.0664 1117.34 96.9186 1116.01 96.9186C1114.68 96.9186 1113.85 98.1959 1113.85 100.362V110.692H1109.65V92.3646H1113.85V94.0492C1114.28 93.3049 1114.85 92.7155 1115.5 92.3341C1116.15 91.9528 1116.86 91.7915 1117.56 91.8647C1118.27 91.8157 1118.98 92.0118 1119.62 92.4338C1120.25 92.8557 1120.79 93.4889 1121.19 94.2713C1121.65 93.4539 1122.26 92.8044 1122.96 92.3836C1123.66 91.9627 1124.43 91.7842 1125.2 91.8647C1128.47 91.8647 1130.54 94.8637 1130.54 99.4363Z" fill="#394149"/>
<path d="M969.397 80.4809V73H950V124.398H969.397V116.917C965.423 116.917 961.613 114.998 958.803 111.581C955.993 108.165 954.415 103.531 954.415 98.6989C954.415 93.8672 955.993 89.2334 958.803 85.8168C961.613 82.4003 965.423 80.4809 969.397 80.4809Z" fill="#394149"/>
<path d="M969.396 79.853V117.545C973.353 117.545 977.149 115.559 979.947 112.025C982.745 108.491 984.317 103.697 984.317 98.6988C984.317 93.7006 982.745 88.9071 979.947 85.3728C977.149 81.8385 973.353 79.853 969.396 79.853Z" fill="#394149"/>
<path d="M1135.02 93.5592C1136.66 93.5592 1138 91.6416 1138 89.2761C1138 86.9106 1136.66 84.9929 1135.02 84.9929C1133.37 84.9929 1132.03 86.9106 1132.03 89.2761C1132.03 91.6416 1133.37 93.5592 1135.02 93.5592Z" fill="#394149"/>
</g>
<path d="M11.5854 19.401V21H3.25765V19.401H6.52007V9.30254C6.52007 8.98059 6.5308 8.64791 6.55226 8.3045L3.93375 10.5259C3.83358 10.6046 3.73342 10.6547 3.63326 10.6762C3.5331 10.6976 3.43651 10.7012 3.34351 10.6869C3.25765 10.6726 3.17896 10.644 3.10741 10.6011C3.04302 10.551 2.98936 10.5009 2.94644 10.4508L2.29181 9.53863L6.9064 5.5572H8.61273V19.401H11.5854ZM24.8943 13.2947C24.8943 14.6397 24.7476 15.8059 24.4543 16.7932C24.1681 17.7805 23.771 18.5997 23.2631 19.2507C22.7623 19.8946 22.1684 20.374 21.4816 20.6888C20.8019 21.0036 20.0686 21.161 19.2816 21.161C18.4947 21.161 17.7577 21.0036 17.0709 20.6888C16.3913 20.374 15.801 19.8946 15.3002 19.2507C14.7994 18.5997 14.4059 17.7805 14.1197 16.7932C13.8336 15.8059 13.6905 14.6397 13.6905 13.2947C13.6905 11.9497 13.8336 10.7835 14.1197 9.79619C14.4059 8.80173 14.7994 7.98255 15.3002 7.33865C15.801 6.6876 16.3913 6.20468 17.0709 5.88988C17.7577 5.57509 18.4947 5.41769 19.2816 5.41769C20.0686 5.41769 20.8019 5.57509 21.4816 5.88988C22.1684 6.20468 22.7623 6.6876 23.2631 7.33865C23.771 7.98255 24.1681 8.80173 24.4543 9.79619C24.7476 10.7835 24.8943 11.9497 24.8943 13.2947ZM22.7265 13.2947C22.7265 12.1357 22.6299 11.1663 22.4367 10.3864C22.2507 9.6066 21.9967 8.98059 21.6748 8.5084C21.36 8.02905 20.9951 7.68922 20.5802 7.48889C20.1652 7.28857 19.7324 7.18841 19.2816 7.18841C18.8309 7.18841 18.3981 7.28857 17.9831 7.48889C17.5682 7.68922 17.1997 8.02905 16.8778 8.5084C16.563 8.98059 16.3126 9.6066 16.1265 10.3864C15.9405 11.1663 15.8475 12.1357 15.8475 13.2947C15.8475 14.4537 15.9405 15.4231 16.1265 16.203C16.3126 16.9828 16.563 17.6088 16.8778 18.081C17.1997 18.5532 17.5682 18.8894 17.9831 19.0898C18.3981 19.2901 18.8309 19.3903 19.2816 19.3903C19.7324 19.3903 20.1652 19.2901 20.5802 19.0898C20.9951 18.8894 21.36 18.5532 21.6748 18.081C21.9967 17.6088 22.2507 16.9828 22.4367 16.203C22.6299 15.4231 22.7265 14.4537 22.7265 13.2947ZM37.3446 13.2947C37.3446 14.6397 37.198 15.8059 36.9046 16.7932C36.6185 17.7805 36.2214 18.5997 35.7134 19.2507C35.2126 19.8946 34.6188 20.374 33.932 20.6888C33.2523 21.0036 32.519 21.161 31.732 21.161C30.945 21.161 30.2081 21.0036 29.5213 20.6888C28.8416 20.374 28.2514 19.8946 27.7506 19.2507C27.2498 18.5997 26.8563 17.7805 26.5701 16.7932C26.2839 15.8059 26.1408 14.6397 26.1408 13.2947C26.1408 11.9497 26.2839 10.7835 26.5701 9.79619C26.8563 8.80173 27.2498 7.98255 27.7506 7.33865C28.2514 6.6876 28.8416 6.20468 29.5213 5.88988C30.2081 5.57509 30.945 5.41769 31.732 5.41769C32.519 5.41769 33.2523 5.57509 33.932 5.88988C34.6188 6.20468 35.2126 6.6876 35.7134 7.33865C36.2214 7.98255 36.6185 8.80173 36.9046 9.79619C37.198 10.7835 37.3446 11.9497 37.3446 13.2947ZM35.1768 13.2947C35.1768 12.1357 35.0803 11.1663 34.8871 10.3864C34.7011 9.6066 34.4471 8.98059 34.1251 8.5084C33.8103 8.02905 33.4455 7.68922 33.0305 7.48889C32.6156 7.28857 32.1827 7.18841 31.732 7.18841C31.2813 7.18841 30.8484 7.28857 30.4335 7.48889C30.0185 7.68922 29.6501 8.02905 29.3281 8.5084C29.0133 8.98059 28.7629 9.6066 28.5769 10.3864C28.3909 11.1663 28.2979 12.1357 28.2979 13.2947C28.2979 14.4537 28.3909 15.4231 28.5769 16.203C28.7629 16.9828 29.0133 17.6088 29.3281 18.081C29.6501 18.5532 30.0185 18.8894 30.4335 19.0898C30.8484 19.2901 31.2813 19.3903 31.732 19.3903C32.1827 19.3903 32.6156 19.2901 33.0305 19.0898C33.4455 18.8894 33.8103 18.5532 34.1251 18.081C34.4471 17.6088 34.7011 16.9828 34.8871 16.203C35.0803 15.4231 35.1768 14.4537 35.1768 13.2947ZM49.3657 14.5932H45.0409V19.1542H43.3345V14.5932H39.0312V13.0049H43.3345V8.46547H45.0409V13.0049H49.3657V14.5932ZM68.5111 17.6947C68.6399 17.6947 68.7508 17.7447 68.8438 17.8449L69.7452 18.8322C69.1156 19.5763 68.3465 20.1522 67.4379 20.56C66.5365 20.9678 65.449 21.1717 64.1755 21.1717C63.0594 21.1717 62.0471 20.9785 61.1385 20.5922C60.237 20.2059 59.4643 19.6657 58.8204 18.9717C58.1837 18.2777 57.69 17.4478 57.3395 16.482C56.9889 15.5161 56.8136 14.4537 56.8136 13.2947C56.8136 12.1357 56.9961 11.0733 57.3609 10.1074C57.733 9.14156 58.2517 8.31165 58.917 7.61767C59.5824 6.92369 60.3765 6.38354 61.2994 5.9972C62.2295 5.61086 63.2562 5.41769 64.3794 5.41769C65.474 5.41769 66.447 5.59655 67.2984 5.95427C68.1498 6.31199 68.8903 6.78776 69.5199 7.38158L68.7686 8.44401C68.7186 8.52271 68.6542 8.58709 68.5755 8.63718C68.5039 8.68726 68.4073 8.7123 68.2857 8.7123C68.1498 8.7123 67.9888 8.64433 67.8028 8.5084C67.6239 8.37246 67.3843 8.22222 67.0838 8.05767C66.7905 7.88596 66.4256 7.73214 65.9892 7.59621C65.5527 7.46028 65.009 7.39231 64.358 7.39231C63.5924 7.39231 62.8913 7.52824 62.2546 7.80011C61.6178 8.06482 61.0669 8.45116 60.6019 8.95912C60.144 9.45993 59.7863 10.0788 59.5287 10.8157C59.2783 11.5454 59.1531 12.3718 59.1531 13.2947C59.1531 14.2319 59.2855 15.0654 59.5502 15.7952C59.8149 16.5249 60.1798 17.1438 60.6448 17.6517C61.1098 18.1597 61.6572 18.546 62.2867 18.8107C62.9163 19.0755 63.596 19.2078 64.3258 19.2078C64.7693 19.2078 65.1664 19.1828 65.517 19.1327C65.8747 19.0755 66.2002 18.9932 66.4935 18.8859C66.794 18.7786 67.0766 18.6426 67.3413 18.4781C67.6061 18.3064 67.8672 18.1025 68.1247 17.8664C68.182 17.8163 68.2428 17.7769 68.3072 17.7483C68.3716 17.7125 68.4395 17.6947 68.5111 17.6947ZM76.0501 9.92497C76.8513 9.92497 77.5739 10.0573 78.2178 10.322C78.8689 10.5796 79.4198 10.9552 79.8705 11.4489C80.3284 11.9354 80.679 12.5256 80.9222 13.2196C81.1655 13.9064 81.2871 14.6791 81.2871 15.5376C81.2871 16.3961 81.1655 17.1724 80.9222 17.8664C80.679 18.5603 80.3284 19.1506 79.8705 19.6371C79.4198 20.1236 78.8689 20.4992 78.2178 20.7639C77.5739 21.0215 76.8513 21.1502 76.0501 21.1502C75.2416 21.1502 74.5119 21.0215 73.8608 20.7639C73.2169 20.4992 72.666 20.1236 72.2081 19.6371C71.7502 19.1506 71.3961 18.5603 71.1457 17.8664C70.9025 17.1724 70.7808 16.3961 70.7808 15.5376C70.7808 14.6791 70.9025 13.9064 71.1457 13.2196C71.3961 12.5256 71.7502 11.9354 72.2081 11.4489C72.666 10.9552 73.2169 10.5796 73.8608 10.322C74.5119 10.0573 75.2416 9.92497 76.0501 9.92497ZM76.0501 19.519C77.0803 19.519 77.8494 19.172 78.3573 18.4781C78.8653 17.7841 79.1193 16.8075 79.1193 15.5483C79.1193 14.2892 78.8653 13.3126 78.3573 12.6186C77.8494 11.9175 77.0803 11.5669 76.0501 11.5669C75.0055 11.5669 74.2257 11.9175 73.7106 12.6186C73.2026 13.3126 72.9486 14.2892 72.9486 15.5483C72.9486 16.8075 73.2026 17.7841 73.7106 18.4781C74.2257 19.172 75.0055 19.519 76.0501 19.519ZM83.623 21V10.0967H84.8786C85.172 10.0967 85.3544 10.2362 85.426 10.5152L85.5762 11.5562C85.9769 11.0768 86.4204 10.6869 86.9069 10.3864C87.4006 10.0788 87.9765 9.92497 88.6347 9.92497C89.3573 9.92497 89.944 10.1253 90.3947 10.5259C90.8454 10.9194 91.1745 11.456 91.382 12.1357C91.5394 11.7493 91.7433 11.4167 91.9937 11.1376C92.2441 10.8586 92.5231 10.6297 92.8308 10.4508C93.1384 10.272 93.4639 10.1396 93.8074 10.0537C94.1579 9.9679 94.5121 9.92497 94.8698 9.92497C95.4493 9.92497 95.9644 10.018 96.4151 10.204C96.873 10.3829 97.2594 10.6476 97.5742 10.9981C97.8889 11.3487 98.1286 11.7815 98.2932 12.2967C98.4577 12.8118 98.54 13.3984 98.54 14.0566V21H96.4366V14.0566C96.4366 13.241 96.2577 12.6258 95.9 12.2108C95.5495 11.7958 95.0343 11.5884 94.3547 11.5884C94.0542 11.5884 93.768 11.642 93.4961 11.7493C93.2243 11.8495 92.9846 12.0033 92.7771 12.2108C92.5768 12.4183 92.4158 12.6758 92.2942 12.9835C92.1797 13.2911 92.1225 13.6488 92.1225 14.0566V21H90.0191V14.0566C90.0191 13.2124 89.851 12.59 89.5147 12.1893C89.1784 11.7887 88.6848 11.5884 88.0337 11.5884C87.583 11.5884 87.1645 11.7064 86.7781 11.9425C86.3918 12.1786 86.0377 12.5006 85.7157 12.9084V21H83.623ZM103.448 18.3171C103.791 18.7678 104.16 19.0826 104.553 19.2615C104.954 19.4403 105.401 19.5298 105.895 19.5298C106.854 19.5298 107.594 19.1864 108.116 18.4995C108.646 17.8056 108.91 16.7968 108.91 15.4732C108.91 14.7792 108.85 14.189 108.728 13.7025C108.614 13.2088 108.442 12.8082 108.213 12.5006C107.991 12.1858 107.716 11.9568 107.387 11.8137C107.057 11.6635 106.685 11.5884 106.27 11.5884C105.662 11.5884 105.133 11.7243 104.682 11.9962C104.239 12.268 103.827 12.6544 103.448 13.1552V18.3171ZM103.341 11.7279C103.57 11.456 103.813 11.2092 104.07 10.9874C104.335 10.7585 104.618 10.5653 104.918 10.4079C105.219 10.2433 105.537 10.1181 105.873 10.0323C106.217 9.93928 106.582 9.89277 106.968 9.89277C107.59 9.89277 108.152 10.0144 108.653 10.2576C109.161 10.5009 109.594 10.8586 109.951 11.3308C110.309 11.803 110.585 12.3861 110.778 13.0801C110.978 13.774 111.078 14.5718 111.078 15.4732C111.078 16.2817 110.967 17.0329 110.746 17.7269C110.531 18.4137 110.22 19.0111 109.812 19.519C109.411 20.027 108.918 20.4276 108.331 20.721C107.751 21.0072 107.097 21.1502 106.367 21.1502C105.716 21.1502 105.158 21.0429 104.693 20.8283C104.228 20.6137 103.813 20.3132 103.448 19.9268V24.6595H101.355V10.0967H102.611C102.904 10.0967 103.087 10.2362 103.158 10.5152L103.341 11.7279ZM119.288 16.16C118.437 16.1887 117.714 16.2566 117.12 16.3639C116.526 16.4641 116.043 16.6 115.671 16.7717C115.299 16.9434 115.031 17.1473 114.866 17.3834C114.702 17.6124 114.62 17.8699 114.62 18.1561C114.62 18.428 114.663 18.6641 114.748 18.8644C114.841 19.0576 114.963 19.2186 115.113 19.3473C115.271 19.469 115.453 19.5584 115.661 19.6156C115.868 19.6729 116.093 19.7015 116.337 19.7015C116.659 19.7015 116.952 19.6693 117.217 19.6049C117.489 19.5405 117.743 19.4511 117.979 19.3366C118.215 19.215 118.44 19.0683 118.655 18.8966C118.869 18.7249 119.08 18.5282 119.288 18.3064V16.16ZM113.149 11.6206C113.758 11.0411 114.416 10.6082 115.124 10.322C115.839 10.0359 116.623 9.89277 117.474 9.89277C118.097 9.89277 118.648 9.99651 119.127 10.204C119.606 10.4043 120.011 10.6869 120.34 11.0518C120.669 11.4167 120.916 11.8531 121.08 12.361C121.252 12.869 121.338 13.4306 121.338 14.0459V21H120.404C120.197 21 120.039 20.9678 119.932 20.9034C119.824 20.8319 119.739 20.7031 119.674 20.5171L119.449 19.562C119.17 19.8195 118.894 20.0485 118.623 20.2488C118.351 20.442 118.065 20.6101 117.764 20.7532C117.471 20.8891 117.156 20.9928 116.82 21.0644C116.483 21.1359 116.111 21.1717 115.704 21.1717C115.274 21.1717 114.87 21.1145 114.491 21C114.119 20.8784 113.793 20.6959 113.514 20.4527C113.235 20.2094 113.013 19.9054 112.849 19.5405C112.692 19.1756 112.613 18.7499 112.613 18.2634C112.613 17.8342 112.727 17.4228 112.956 17.0293C113.192 16.6287 113.572 16.2709 114.094 15.9561C114.623 15.6413 115.31 15.3838 116.154 15.1835C117.006 14.9831 118.05 14.8687 119.288 14.8401V14.0459C119.288 13.2232 119.113 12.6079 118.762 12.2001C118.411 11.7923 117.896 11.5884 117.217 11.5884C116.759 11.5884 116.372 11.6456 116.058 11.7601C115.75 11.8745 115.482 12.0033 115.253 12.1464C115.031 12.2823 114.834 12.4076 114.663 12.522C114.498 12.6365 114.326 12.6937 114.147 12.6937C114.004 12.6937 113.879 12.6544 113.772 12.5757C113.672 12.497 113.589 12.404 113.525 12.2967L113.149 11.6206ZM126.103 11.6098C126.339 11.3594 126.586 11.1305 126.843 10.923C127.101 10.7155 127.373 10.5402 127.659 10.3972C127.952 10.2469 128.264 10.1324 128.593 10.0537C128.929 9.9679 129.287 9.92497 129.666 9.92497C130.267 9.92497 130.793 10.0251 131.243 10.2255C131.701 10.4258 132.084 10.7084 132.392 11.0733C132.699 11.431 132.932 11.8638 133.089 12.3718C133.247 12.8797 133.325 13.4414 133.325 14.0566V21H131.222V14.0566C131.222 13.2768 131.043 12.6723 130.685 12.243C130.328 11.8066 129.78 11.5884 129.043 11.5884C128.507 11.5884 128.002 11.7172 127.53 11.9747C127.065 12.2251 126.632 12.5685 126.232 13.0049V21H124.139V10.0967H125.395C125.688 10.0967 125.87 10.2362 125.942 10.5152L126.103 11.6098ZM138.339 10.0967V21H136.246V10.0967H138.339ZM138.736 6.72695C138.736 6.92012 138.696 7.10613 138.618 7.28499C138.539 7.4567 138.432 7.61052 138.296 7.74645C138.167 7.87523 138.013 7.97897 137.834 8.05767C137.655 8.12921 137.469 8.16498 137.276 8.16498C137.083 8.16498 136.901 8.12921 136.729 8.05767C136.557 7.97897 136.403 7.87523 136.267 7.74645C136.139 7.61052 136.035 7.4567 135.956 7.28499C135.885 7.10613 135.849 6.92012 135.849 6.72695C135.849 6.52662 135.885 6.34061 135.956 6.1689C136.035 5.99004 136.139 5.83622 136.267 5.70744C136.403 5.57151 136.557 5.46777 136.729 5.39623C136.901 5.31753 137.083 5.27818 137.276 5.27818C137.469 5.27818 137.655 5.31753 137.834 5.39623C138.013 5.46777 138.167 5.57151 138.296 5.70744C138.432 5.83622 138.539 5.99004 138.618 6.1689C138.696 6.34061 138.736 6.52662 138.736 6.72695ZM148.591 14.3357C148.591 13.9207 148.53 13.5379 148.408 13.1874C148.294 12.8368 148.122 12.5328 147.893 12.2752C147.664 12.0176 147.385 11.8173 147.056 11.6742C146.727 11.5311 146.348 11.4596 145.919 11.4596C145.039 11.4596 144.345 11.7136 143.837 12.2215C143.336 12.7295 143.017 13.4342 142.882 14.3357H148.591ZM150.319 19.4439C150.061 19.7444 149.764 20.0055 149.428 20.2273C149.092 20.442 148.734 20.6172 148.355 20.7532C147.975 20.8891 147.582 20.9893 147.174 21.0537C146.774 21.118 146.376 21.1502 145.983 21.1502C145.232 21.1502 144.534 21.025 143.89 20.7746C143.254 20.5171 142.699 20.145 142.227 19.6585C141.762 19.1649 141.397 18.5568 141.132 17.8342C140.875 17.1044 140.746 16.2674 140.746 15.323C140.746 14.5646 140.864 13.8599 141.1 13.2088C141.336 12.5506 141.672 11.9783 142.109 11.4918C142.552 11.0053 143.093 10.6225 143.729 10.3435C144.366 10.0645 145.082 9.92497 145.876 9.92497C146.541 9.92497 147.153 10.0359 147.711 10.2576C148.276 10.4723 148.762 10.7871 149.17 11.202C149.578 11.617 149.896 12.1285 150.125 12.7367C150.361 13.3448 150.48 14.0388 150.48 14.8186C150.48 15.1405 150.444 15.3587 150.372 15.4732C150.301 15.5805 150.168 15.6342 149.975 15.6342H142.828C142.849 16.2852 142.942 16.854 143.107 17.3405C143.271 17.8199 143.497 18.2205 143.783 18.5425C144.076 18.8644 144.423 19.1041 144.824 19.2615C145.225 19.4189 145.672 19.4976 146.165 19.4976C146.63 19.4976 147.031 19.4439 147.367 19.3366C147.711 19.2293 148.004 19.1148 148.247 18.9932C148.498 18.8644 148.705 18.7464 148.87 18.639C149.041 18.5317 149.192 18.4781 149.321 18.4781C149.492 18.4781 149.625 18.5425 149.718 18.6712L150.319 19.4439ZM159.157 11.9747C159.1 12.0677 159.039 12.1357 158.975 12.1786C158.91 12.2144 158.828 12.2323 158.728 12.2323C158.613 12.2323 158.485 12.1929 158.341 12.1142C158.206 12.0355 158.037 11.9497 157.837 11.8567C157.644 11.7637 157.415 11.6778 157.15 11.5991C156.886 11.5204 156.571 11.4811 156.206 11.4811C155.905 11.4811 155.63 11.5204 155.38 11.5991C155.136 11.6706 154.929 11.7744 154.757 11.9103C154.585 12.0391 154.453 12.1965 154.36 12.3825C154.267 12.5614 154.221 12.7545 154.221 12.962C154.221 13.2339 154.299 13.4592 154.457 13.6381C154.621 13.817 154.832 13.9708 155.09 14.0996C155.354 14.2283 155.651 14.3464 155.98 14.4537C156.317 14.5539 156.657 14.6612 157 14.7757C157.351 14.8901 157.69 15.0225 158.019 15.1727C158.356 15.3158 158.653 15.4983 158.91 15.72C159.175 15.9347 159.386 16.1958 159.543 16.5035C159.708 16.8111 159.79 17.1867 159.79 17.6303C159.79 18.1382 159.697 18.6104 159.511 19.0468C159.332 19.4761 159.064 19.8481 158.706 20.1629C158.356 20.4777 157.919 20.7246 157.397 20.9034C156.875 21.0823 156.277 21.1717 155.605 21.1717C154.854 21.1717 154.16 21.0465 153.523 20.7961C152.886 20.5457 152.353 20.2273 151.924 19.841L152.418 19.0361C152.475 18.936 152.546 18.8608 152.632 18.8107C152.718 18.7535 152.833 18.7249 152.976 18.7249C153.112 18.7249 153.251 18.775 153.394 18.8751C153.537 18.9753 153.709 19.0862 153.909 19.2078C154.11 19.3223 154.353 19.4296 154.639 19.5298C154.925 19.6228 155.283 19.6693 155.712 19.6693C156.07 19.6693 156.381 19.6264 156.646 19.5405C156.911 19.4475 157.129 19.3259 157.3 19.1756C157.479 19.0182 157.612 18.8394 157.698 18.639C157.783 18.4387 157.826 18.2277 157.826 18.0059C157.826 17.7197 157.744 17.4836 157.579 17.2976C157.422 17.1044 157.211 16.9399 156.946 16.8039C156.689 16.668 156.392 16.55 156.056 16.4498C155.719 16.3496 155.376 16.2423 155.025 16.1278C154.675 16.0134 154.331 15.881 153.995 15.7308C153.659 15.5805 153.358 15.3909 153.094 15.162C152.836 14.9331 152.625 14.654 152.461 14.3249C152.303 13.9958 152.224 13.5952 152.224 13.123C152.224 12.7009 152.31 12.2967 152.482 11.9103C152.661 11.524 152.915 11.1841 153.244 10.8908C153.58 10.5975 153.992 10.365 154.478 10.1933C154.972 10.0144 155.533 9.92497 156.163 9.92497C156.886 9.92497 157.537 10.0394 158.116 10.2684C158.703 10.4973 159.204 10.8121 159.619 11.2128L159.157 11.9747ZM173.924 19.1649C174.539 19.1649 175.09 19.0612 175.576 18.8537C176.063 18.6462 176.474 18.3564 176.811 17.9844C177.147 17.6052 177.404 17.1581 177.583 16.643C177.762 16.1207 177.852 15.5448 177.852 14.9152V5.5894H180.127V14.9152C180.127 15.8166 179.984 16.6501 179.697 17.4156C179.411 18.1812 179 18.8429 178.463 19.401C177.927 19.959 177.276 20.3955 176.51 20.7102C175.745 21.025 174.882 21.1824 173.924 21.1824C172.965 21.1824 172.103 21.025 171.337 20.7102C170.572 20.3955 169.921 19.959 169.384 19.401C168.848 18.8429 168.436 18.1812 168.15 17.4156C167.864 16.6501 167.721 15.8166 167.721 14.9152V5.5894H170.007V14.9044C170.007 15.534 170.093 16.11 170.264 16.6322C170.443 17.1545 170.701 17.6052 171.037 17.9844C171.373 18.3564 171.785 18.6462 172.271 18.8537C172.758 19.0612 173.308 19.1649 173.924 19.1649ZM189.235 11.9747C189.178 12.0677 189.117 12.1357 189.052 12.1786C188.988 12.2144 188.906 12.2323 188.806 12.2323C188.691 12.2323 188.562 12.1929 188.419 12.1142C188.283 12.0355 188.115 11.9497 187.915 11.8567C187.722 11.7637 187.493 11.6778 187.228 11.5991C186.963 11.5204 186.649 11.4811 186.284 11.4811C185.983 11.4811 185.708 11.5204 185.457 11.5991C185.214 11.6706 185.007 11.7744 184.835 11.9103C184.663 12.0391 184.531 12.1965 184.438 12.3825C184.345 12.5614 184.298 12.7545 184.298 12.962C184.298 13.2339 184.377 13.4592 184.534 13.6381C184.699 13.817 184.91 13.9708 185.168 14.0996C185.432 14.2283 185.729 14.3464 186.058 14.4537C186.395 14.5539 186.734 14.6612 187.078 14.7757C187.428 14.8901 187.768 15.0225 188.097 15.1727C188.434 15.3158 188.731 15.4983 188.988 15.72C189.253 15.9347 189.464 16.1958 189.621 16.5035C189.786 16.8111 189.868 17.1867 189.868 17.6303C189.868 18.1382 189.775 18.6104 189.589 19.0468C189.41 19.4761 189.142 19.8481 188.784 20.1629C188.434 20.4777 187.997 20.7246 187.475 20.9034C186.953 21.0823 186.355 21.1717 185.683 21.1717C184.932 21.1717 184.238 21.0465 183.601 20.7961C182.964 20.5457 182.431 20.2273 182.002 19.841L182.495 19.0361C182.553 18.936 182.624 18.8608 182.71 18.8107C182.796 18.7535 182.91 18.7249 183.054 18.7249C183.189 18.7249 183.329 18.775 183.472 18.8751C183.615 18.9753 183.787 19.0862 183.987 19.2078C184.187 19.3223 184.431 19.4296 184.717 19.5298C185.003 19.6228 185.361 19.6693 185.79 19.6693C186.148 19.6693 186.459 19.6264 186.724 19.5405C186.988 19.4475 187.207 19.3259 187.378 19.1756C187.557 19.0182 187.69 18.8394 187.775 18.639C187.861 18.4387 187.904 18.2277 187.904 18.0059C187.904 17.7197 187.822 17.4836 187.657 17.2976C187.5 17.1044 187.289 16.9399 187.024 16.8039C186.767 16.668 186.47 16.55 186.133 16.4498C185.797 16.3496 185.454 16.2423 185.103 16.1278C184.753 16.0134 184.409 15.881 184.073 15.7308C183.737 15.5805 183.436 15.3909 183.172 15.162C182.914 14.9331 182.703 14.654 182.538 14.3249C182.381 13.9958 182.302 13.5952 182.302 13.123C182.302 12.7009 182.388 12.2967 182.56 11.9103C182.739 11.524 182.993 11.1841 183.322 10.8908C183.658 10.5975 184.069 10.365 184.556 10.1933C185.05 10.0144 185.611 9.92497 186.241 9.92497C186.963 9.92497 187.614 10.0394 188.194 10.2684C188.781 10.4973 189.281 10.8121 189.696 11.2128L189.235 11.9747ZM199.356 14.3357C199.356 13.9207 199.296 13.5379 199.174 13.1874C199.059 12.8368 198.888 12.5328 198.659 12.2752C198.43 12.0176 198.151 11.8173 197.822 11.6742C197.493 11.5311 197.113 11.4596 196.684 11.4596C195.804 11.4596 195.11 11.7136 194.602 12.2215C194.101 12.7295 193.783 13.4342 193.647 14.3357H199.356ZM201.084 19.4439C200.827 19.7444 200.53 20.0055 200.193 20.2273C199.857 20.442 199.499 20.6172 199.12 20.7532C198.741 20.8891 198.348 20.9893 197.94 21.0537C197.539 21.118 197.142 21.1502 196.749 21.1502C195.997 21.1502 195.3 21.025 194.656 20.7746C194.019 20.5171 193.465 20.145 192.992 19.6585C192.527 19.1649 192.163 18.5568 191.898 17.8342C191.64 17.1044 191.512 16.2674 191.512 15.323C191.512 14.5646 191.63 13.8599 191.866 13.2088C192.102 12.5506 192.438 11.9783 192.874 11.4918C193.318 11.0053 193.858 10.6225 194.495 10.3435C195.132 10.0645 195.847 9.92497 196.641 9.92497C197.307 9.92497 197.918 10.0359 198.476 10.2576C199.042 10.4723 199.528 10.7871 199.936 11.202C200.344 11.617 200.662 12.1285 200.891 12.7367C201.127 13.3448 201.245 14.0388 201.245 14.8186C201.245 15.1405 201.209 15.3587 201.138 15.4732C201.066 15.5805 200.934 15.6342 200.741 15.6342H193.593C193.615 16.2852 193.708 16.854 193.872 17.3405C194.037 17.8199 194.262 18.2205 194.549 18.5425C194.842 18.8644 195.189 19.1041 195.59 19.2615C195.99 19.4189 196.437 19.4976 196.931 19.4976C197.396 19.4976 197.797 19.4439 198.133 19.3366C198.476 19.2293 198.77 19.1148 199.013 18.9932C199.263 18.8644 199.471 18.7464 199.635 18.639C199.807 18.5317 199.957 18.4781 200.086 18.4781C200.258 18.4781 200.39 18.5425 200.483 18.6712L201.084 19.4439ZM213.57 9.92497C214.371 9.92497 215.094 10.0573 215.738 10.322C216.389 10.5796 216.94 10.9552 217.39 11.4489C217.848 11.9354 218.199 12.5256 218.442 13.2196C218.685 13.9064 218.807 14.6791 218.807 15.5376C218.807 16.3961 218.685 17.1724 218.442 17.8664C218.199 18.5603 217.848 19.1506 217.39 19.6371C216.94 20.1236 216.389 20.4992 215.738 20.7639C215.094 21.0215 214.371 21.1502 213.57 21.1502C212.761 21.1502 212.032 21.0215 211.381 20.7639C210.737 20.4992 210.186 20.1236 209.728 19.6371C209.27 19.1506 208.916 18.5603 208.666 17.8664C208.422 17.1724 208.301 16.3961 208.301 15.5376C208.301 14.6791 208.422 13.9064 208.666 13.2196C208.916 12.5256 209.27 11.9354 209.728 11.4489C210.186 10.9552 210.737 10.5796 211.381 10.322C212.032 10.0573 212.761 9.92497 213.57 9.92497ZM213.57 19.519C214.6 19.519 215.369 19.172 215.877 18.4781C216.385 17.7841 216.639 16.8075 216.639 15.5483C216.639 14.2892 216.385 13.3126 215.877 12.6186C215.369 11.9175 214.6 11.5669 213.57 11.5669C212.525 11.5669 211.745 11.9175 211.23 12.6186C210.722 13.3126 210.468 14.2892 210.468 15.5483C210.468 16.8075 210.722 17.7841 211.23 18.4781C211.745 19.172 212.525 19.519 213.57 19.519ZM230.211 10.0967V21H228.955C228.669 21 228.483 20.8605 228.397 20.5815L228.247 19.4868C228.011 19.7372 227.764 19.9662 227.507 20.1737C227.249 20.3811 226.974 20.56 226.68 20.7102C226.387 20.8533 226.076 20.9642 225.747 21.0429C225.418 21.1288 225.063 21.1717 224.684 21.1717C224.083 21.1717 223.554 21.0715 223.096 20.8712C222.645 20.6709 222.266 20.3919 221.958 20.0342C221.651 19.6693 221.418 19.2329 221.261 18.7249C221.104 18.2169 221.025 17.6553 221.025 17.04V10.0967H223.128V17.04C223.128 17.8199 223.307 18.428 223.665 18.8644C224.023 19.2937 224.57 19.5083 225.307 19.5083C225.843 19.5083 226.344 19.3831 226.809 19.1327C227.274 18.8751 227.711 18.5246 228.118 18.081V10.0967H230.211ZM235.107 12.1893C235.457 11.4739 235.879 10.9123 236.373 10.5045C236.867 10.0967 237.461 9.89277 238.154 9.89277C238.391 9.89277 238.612 9.92139 238.82 9.97863C239.034 10.0287 239.221 10.1074 239.378 10.2147L239.238 11.7923C239.188 11.9854 239.07 12.082 238.884 12.082C238.784 12.082 238.634 12.0641 238.434 12.0284C238.233 11.9854 238.019 11.964 237.79 11.964C237.453 11.964 237.156 12.0141 236.899 12.1142C236.641 12.2072 236.409 12.3503 236.201 12.5435C236.001 12.7295 235.822 12.962 235.665 13.241C235.507 13.5129 235.361 13.8241 235.225 14.1747V21H233.132V10.0967H234.334C234.563 10.0967 234.717 10.1396 234.795 10.2255C234.881 10.3042 234.942 10.4472 234.978 10.6547L235.107 12.1893ZM253.865 15.2586L251.579 9.28107C251.414 8.87327 251.25 8.35815 251.085 7.73572C251.006 8.04336 250.924 8.32954 250.838 8.59425C250.76 8.85896 250.681 9.09506 250.602 9.30254L248.327 15.2586H253.865ZM258.383 21H256.623C256.422 21 256.258 20.9499 256.129 20.8498C256 20.7496 255.907 20.6208 255.85 20.4634L254.487 16.8898H247.694L246.331 20.4634C246.281 20.5994 246.188 20.7246 246.052 20.839C245.916 20.9463 245.751 21 245.558 21H243.798L249.937 5.5894H252.244L258.383 21ZM261.928 18.3171C262.271 18.7678 262.64 19.0826 263.033 19.2615C263.434 19.4403 263.881 19.5298 264.375 19.5298C265.334 19.5298 266.074 19.1864 266.596 18.4995C267.126 17.8056 267.39 16.7968 267.39 15.4732C267.39 14.7792 267.33 14.189 267.208 13.7025C267.094 13.2088 266.922 12.8082 266.693 12.5006C266.471 12.1858 266.196 11.9568 265.867 11.8137C265.537 11.6635 265.165 11.5884 264.75 11.5884C264.142 11.5884 263.613 11.7243 263.162 11.9962C262.719 12.268 262.307 12.6544 261.928 13.1552V18.3171ZM261.821 11.7279C262.05 11.456 262.293 11.2092 262.55 10.9874C262.815 10.7585 263.098 10.5653 263.398 10.4079C263.699 10.2433 264.017 10.1181 264.353 10.0323C264.697 9.93928 265.062 9.89277 265.448 9.89277C266.07 9.89277 266.632 10.0144 267.133 10.2576C267.641 10.5009 268.074 10.8586 268.431 11.3308C268.789 11.803 269.065 12.3861 269.258 13.0801C269.458 13.774 269.558 14.5718 269.558 15.4732C269.558 16.2817 269.447 17.0329 269.226 17.7269C269.011 18.4137 268.7 19.0111 268.292 19.519C267.891 20.027 267.398 20.4276 266.811 20.721C266.231 21.0072 265.577 21.1502 264.847 21.1502C264.196 21.1502 263.638 21.0429 263.173 20.8283C262.708 20.6137 262.293 20.3132 261.928 19.9268V24.6595H259.835V10.0967H261.091C261.384 10.0967 261.567 10.2362 261.638 10.5152L261.821 11.7279ZM274.001 18.3171C274.345 18.7678 274.713 19.0826 275.106 19.2615C275.507 19.4403 275.954 19.5298 276.448 19.5298C277.407 19.5298 278.147 19.1864 278.669 18.4995C279.199 17.8056 279.464 16.7968 279.464 15.4732C279.464 14.7792 279.403 14.189 279.281 13.7025C279.167 13.2088 278.995 12.8082 278.766 12.5006C278.544 12.1858 278.269 11.9568 277.94 11.8137C277.611 11.6635 277.239 11.5884 276.824 11.5884C276.215 11.5884 275.686 11.7243 275.235 11.9962C274.792 12.268 274.38 12.6544 274.001 13.1552V18.3171ZM273.894 11.7279C274.123 11.456 274.366 11.2092 274.624 10.9874C274.888 10.7585 275.171 10.5653 275.471 10.4079C275.772 10.2433 276.09 10.1181 276.426 10.0323C276.77 9.93928 277.135 9.89277 277.521 9.89277C278.144 9.89277 278.705 10.0144 279.206 10.2576C279.714 10.5009 280.147 10.8586 280.504 11.3308C280.862 11.803 281.138 12.3861 281.331 13.0801C281.531 13.774 281.631 14.5718 281.631 15.4732C281.631 16.2817 281.52 17.0329 281.299 17.7269C281.084 18.4137 280.773 19.0111 280.365 19.519C279.964 20.027 279.471 20.4276 278.884 20.721C278.305 21.0072 277.65 21.1502 276.92 21.1502C276.269 21.1502 275.711 21.0429 275.246 20.8283C274.781 20.6137 274.366 20.3132 274.001 19.9268V24.6595H271.908V10.0967H273.164C273.457 10.0967 273.64 10.2362 273.711 10.5152L273.894 11.7279Z" fill="#03101A"/>
</svg>
